:version 1.10
:name ASF
:units
  mass 1
  length 1
  angle deg
:documentation
  ASF file generated by Kaydara
:root
  axis xyz
  order  tx ty tz rx ry rz
  position 0 0 0
  orientation 0 0 0
:bonedata
  begin
    id 1
    name LeftUpLegDummy
    direction 1 -2.30186e-007 -8.31532e-007
    length 2.93387
    axis 0 0 0 xyz
  end
  begin
    id 2
    name LeftUpLeg
    direction -1.82929e-007 -1 -1.48925e-009
    length 17.3336
    axis -3.48766 0.00143442 -0.000521554 xyz
    dof rx ry rz
  end
  begin
    id 3
    name LeftLeg
    direction -1.82929e-007 -1 -5.23717e-011
    length 14.9995
    axis 3.68178 -0.00654042 -0.000282425 xyz
    dof rx ry rz
  end
  begin
    id 4
    name LeftFoot
    direction 8.31532e-007 -4.54534e-011 1
    length 6.74421
    axis 1.87234e-006 4.66016e-005 -5.96866e-006 xyz
    dof rx ry rz
  end
  begin
    id 5
    name LeftToes
    direction 0.00818058 -0.00485161 0.999955
    length 3.85048
    axis 1.06247e-005 4.65869e-005 -5.96999e-006 xyz
    dof rx ry rz
  end
  begin
    id 6
    name SpineDummy
    direction -5.8607e-008 0.943407 -0.331637
    length 5.93572
    axis 0 0 0 xyz
  end
  begin
    id 7
    name Spine
    direction -1.04988e-007 0.999988 0.00495137
    length 10.1015
    axis -0.001389 0.000121417 6.61666e-006 xyz
    dof rx ry rz
  end
  begin
    id 8
    name Spine1
    direction 0 0 0
    length 0
    axis -0.001389 0.00012144 6.56766e-006 xyz
    dof rx ry rz
  end
  begin
    id 9
    name RightShoulderDummy
    direction -0.98348 0.17941 -0.0240696
    length 3.59882
    axis -0.001389 0.00012144 6.56766e-006 xyz
  end
  begin
    id 10
    name RightShoulder
    direction -0.978693 0.204882 0.0135597
    length 2.70001
    axis 0.215806 0.000203631 -0.00679732 xyz
    dof rx ry rz
  end
  begin
    id 11
    name RightArm
    direction -1 3.85509e-006 8.31394e-007
    length 10.2459
    axis -23.2009 -0.134239 -0.964098 xyz
    dof rx ry rz
  end
  begin
    id 12
    name RightForeArm
    direction -1 3.85569e-006 8.3129e-007
    length 8.16799
    axis -9.92322 0.0658061 0.17887 xyz
    dof rx ry rz
  end
  begin
    id 13
    name RightHand
    direction -0.992843 -0.0414604 0.112003
    length 5.28593
    axis -0.00960638 0.00330669 -0.185225 xyz
    dof rx ry rz
  end
  begin
    id 14
    name LeftShoulder1Dummy
    direction 0.983523 0.179172 -0.0240748
    length 3.59866
    axis -0.001389 0.00012144 6.56766e-006 xyz
  end
  begin
    id 15
    name LeftShoulder1
    direction 0.978627 0.205195 0.0135605
    length 2.70019
    axis -0.001389 0.00012144 6.57583e-006 xyz
    dof rx ry rz
  end
  begin
    id 16
    name LeftArm
    direction 1 3.51895e-006 -8.60188e-007
    length 10.2459
    axis -23.1894 0.134785 0.967513 xyz
    dof rx ry rz
  end
  begin
    id 17
    name LeftForeArm
    direction 1 3.51921e-006 -7.32029e-007
    length 8.16799
    axis -9.91835 -0.0656957 -0.177789 xyz
    dof rx ry rz
  end
  begin
    id 18
    name LeftHand
    direction 0.992938 -0.0411636 0.11126
    length 5.32135
    axis -0.00960237 -0.00340661 0.185177 xyz
    dof rx ry rz
  end
  begin
    id 19
    name HEadDummy
    direction 1.01974e-006 0.999861 -0.016675
    length 2.99946
    axis -0.001389 0.00012144 6.56766e-006 xyz
  end
  begin
    id 20
    name HEad
    direction -0.0222689 0.980941 0.193023
    length 5.12695
    axis -0.001389 0.00012144 6.56766e-006 xyz
    dof rx ry rz
  end
  begin
    id 21
    name RightUpLegDummy
    direction -1 2.30186e-007 8.31532e-007
    length 2.93387
    axis 0 0 0 xyz
  end
  begin
    id 22
    name RightUpLeg
    direction -1.82966e-007 -1 1.56832e-007
    length 17.3336
    axis -3.4909 -0.000906625 0.00028951 xyz
    dof rx ry rz
  end
  begin
    id 23
    name RightLeg
    direction -1.82786e-007 -1 -1.80317e-007
    length 14.9995
    axis 3.68513 0.0193739 -0.131021 xyz
    dof rx ry rz
  end
  begin
    id 24
    name RightFoot
    direction 8.31721e-007 -4.63324e-011 1
    length 6.74421
    axis 4.81691e-005 -0.120479 -0.188785 xyz
    dof rx ry rz
  end
  begin
    id 25
    name RightToes
    direction 0.00124746 -0.014064 0.9999
    length 3.85082
    axis 0.000481921 0.542163 -0.142575 xyz
    dof rx ry rz
  end
:hierarchy
  begin
    root LeftUpLegDummy SpineDummy RightUpLegDummy
    LeftUpLegDummy LeftUpLeg
    LeftUpLeg LeftLeg
    LeftLeg LeftFoot
    LeftFoot LeftToes
    SpineDummy Spine
    Spine Spine1
    Spine1 RightShoulderDummy LeftShoulder1Dummy HEadDummy
    RightShoulderDummy RightShoulder
    RightShoulder RightArm
    RightArm RightForeArm
    RightForeArm RightHand
    LeftShoulder1Dummy LeftShoulder1
    LeftShoulder1 LeftArm
    LeftArm LeftForeArm
    LeftForeArm LeftHand
    HEadDummy HEad
    RightUpLegDummy RightUpLeg
    RightUpLeg RightLeg
    RightLeg RightFoot
    RightFoot RightToes
  end

:SAMPLES-PER-SECOND 30
:FULLY-SPECIFIED
:DEGREES
178
root  0.668898 34.2003 17.4948 4.34345 34.1604 -1.18316
LeftUpLeg  -8.99443 8.89959 2.65747
LeftLeg  11.8972 5.9618 0.857755
LeftFoot  0.0914923 -0.00866702 0.0192927
LeftToes  -15.8372 1.92152e-006 4.03786e-008
Spine  1.86265 0.650055 -1.0803
Spine1  3.40709 1.39802 -2.0377
RightShoulder  0.0509709 4.08377 8.62009
RightArm  -25.6391 -5.59221 68.6524
RightForeArm  10.6364 39.3397 8.3096
RightHand  3.01675 -17.133 -19.4537
LeftShoulder1  0.041524 0.852043 -10.328
LeftArm  -27.4375 16.3171 -64.6718
LeftForeArm  26.6623 -15.5204 -2.80178
LeftHand  0.125703 2.7861 4.78373
HEad  -9.14404 -38.3165 8.44038
RightUpLeg  -12.4859 -14.5606 -4.8157
RightLeg  11.0094 0.579154 0.0757354
RightFoot  8.21625 0.0150731 0.150575
RightToes  -35.5143 -0.174096 -0.288406
179
root  0.654082 34.1849 17.5276 3.92673 33.0366 -1.04883
LeftUpLeg  -8.39251 8.78396 2.68209
LeftLeg  12.1503 7.1227 1.05625
LeftFoot  -0.133277 -0.00691395 -0.00766091
LeftToes  -15.9343 1.92152e-006 4.03786e-008
Spine  1.95641 1.06314 -0.834734
Spine1  3.59997 2.24424 -1.59277
RightShoulder  0.059712 5.60996 7.78315
RightArm  -28.7655 -6.24055 69.4588
RightForeArm  9.83571 38.0136 7.91979
RightHand  4.94609 -18.9989 -28.5659
LeftShoulder1  0.0348885 1.15744 -10.2025
LeftArm  -25.8236 17.0258 -65.7038
LeftForeArm  25.3799 -16.005 -2.89431
LeftHand  0.119722 3.19597 3.91107
HEad  -8.06765 -38.2431 6.20526
RightUpLeg  -12.4314 -14.0218 -4.92091
RightLeg  11.6062 1.1638 0.163163
RightFoot  7.73766 0.0103618 0.225657
RightToes  -35.0101 -0.173875 -0.285236
180
root  0.668821 34.2276 17.5043 4.01829 32.029 -0.661995
LeftUpLeg  -8.08695 9.71549 2.35362
LeftLeg  11.9757 7.125 1.03449
LeftFoot  0.0999373 -0.00851361 0.017912
LeftToes  -15.6562 1.92152e-006 4.03786e-008
Spine  2.13184 1.14502 -1.01958
Spine1  3.98961 2.43956 -2.04379
RightShoulder  0.0474297 3.91439 7.55308
RightArm  -31.0311 -10.9501 70.0435
RightForeArm  19.5153 55.3466 14.8274
RightHand  4.3869 -17.4045 -27.7182
LeftShoulder1  0.0259032 1.24275 -9.76062
LeftArm  -25.0814 18.0582 -65.8269
LeftForeArm  25.5956 -17.2342 -3.13002
LeftHand  0.0931568 3.27976 2.877
HEad  -8.04415 -37.6691 7.02198
RightUpLeg  -12.2969 -15.4588 -5.07697
RightLeg  11.0582 3.41429 0.443057
RightFoot  7.86181 -0.00995343 0.522353
RightToes  -33.8984 -0.173569 -0.278127
181
root  0.716577 34.2721 17.4343 4.60066 30.8663 -0.218081
LeftUpLeg  -8.04704 11.0292 1.79166
LeftLeg  11.2879 6.92886 0.92163
LeftFoot  0.483797 -0.0114358 0.0648039
LeftToes  -15.3083 1.92152e-006 4.03786e-008
Spine  2.07809 0.675354 -1.14029
Spine1  3.93849 1.53263 -2.37142
RightShoulder  0.0314079 1.00481 6.4481
RightArm  -25.5733 -13.5041 68.5601
RightForeArm  46.5734 75.1967 42.2824
RightHand  3.67999 -16.4439 -24.6899
LeftShoulder1  0.0167464 1.18749 -9.37945
LeftArm  -25.5002 20.5422 -66.0282
LeftForeArm  25.1903 -18.2762 -3.33257
LeftHand  0.0843427 2.57046 3.37895
HEad  -7.08538 -35.2714 6.22199
RightUpLeg  -12.5201 -17.376 -5.17061
RightLeg  10.0549 6.23985 0.69733
RightFoot  8.28087 -0.0411365 0.945723
RightToes  -33.4021 -0.1732 -0.274689
182
root  0.761249 34.2701 17.3324 5.11228 29.0563 0.331597
LeftUpLeg  -7.86156 11.9996 1.0949
LeftLeg  10.6094 7.66072 0.926724
LeftFoot  0.663296 -0.0133749 0.0975254
LeftToes  -15.0626 1.92152e-006 4.03786e-008
Spine  1.96982 0.241127 -1.16454
Spine1  3.73975 0.708984 -2.50511
RightShoulder  0.0281966 0.147689 3.69261
RightArm  -23.0009 -11.4822 68.5184
RightForeArm  127.652 78.2388 120.855
RightHand  3.08613 -15.5868 -21.8907
LeftShoulder1  0.0082622 1.5801 -8.77069
LeftArm  -26.0244 22.7176 -66.9546
LeftForeArm  25.3775 -18.179 -3.31352
LeftHand  0.0804641 2.06291 4.08318
HEad  -5.12814 -31.3744 3.71527
RightUpLeg  -12.7512 -17.2353 -5.45099
RightLeg  8.94483 7.60911 0.700968
RightFoot  8.74978 -0.0632989 1.20482
RightToes  -33.7128 -0.17279 -0.272249
